# xmcd
#
# Track frame offsets:
#	150
#	15896
#	32716
#	50386
#	62385
#	78596
#	92131
#	110811
#	124937
#	142609
#	156119
#	168888
#	184585
#	206411
#
# Disc length: 2934 seconds
#
# Revision: 1
# Processed by: cddbd v1.5.2PL0 Copyright (c) Steve Scherf et al.
# Submitted via: audiograbber 1.83.01
#
DISCID=a80b740e
DTITLE=Various Artist - Mr Music 05
DYEAR=2016
DGENRE=Country
TTITLE0=Maren Morris - 80's Mercedes
TTITLE1=Brad paisley - Country Nation
TTITLE2=Shelly Fairchild - Eight Crazy Hours (In The Story Of Love)
TTITLE3=John Anderson - I Fell In The Water
TTITLE4=Cam - Country Ain't Never Been Pretty
TTITLE5=Merle Haggard - That's The Way Love Goes
TTITLE6=Restless Heart - Daney's Dream
TTITLE7=Sarah Johns - A Lot To Let Go Of
TTITLE8=Kellie Pickler - I Wonder
TTITLE9=Alabama - High Cotton
TTITLE10=Pistol Annies - Bad Example
TTITLE11=Jake Owen - Alone With You
TTITLE12=Montgomery Gentry - Hell Yeah
TTITLE13=Greatchen Wilson - There's A Place In The Whiskey
EXTD=
EXTT0=
EXTT1=
EXTT2=
EXTT3=
EXTT4=
EXTT5=
EXTT6=
EXTT7=
EXTT8=
EXTT9=
EXTT10=
EXTT11=
EXTT12=
EXTT13=
PLAYORDER=
